<svg xmlns="http://www.w3.org/2000/svg" border="0" data-ac-wrapper-id="5" width="1366" height="679" class="anychart-ui-support" ac-id="ac_stage_2fee8ec8_0" role="presentation" style="display: block;"><defs><clipPath clip-rule="nonzero" id="ac_clip_2fee8ec8_k"><path data-ac-wrapper-id="27" id="ac_rect_2fee8ec8_l" fill="none" stroke="black" d="M 386 50 L 970 50 970 634 386 634 386 50 Z"/></clipPath><clipPath clip-rule="nonzero" id="ac_clip_2fee8ec8_r"><path data-ac-wrapper-id="32" id="ac_rect_2fee8ec8_s" fill="none" stroke="black" d="M 386 50 L 970 50 970 634 386 634 386 50 Z"/></clipPath></defs><g data-ac-wrapper-id="6" id="ac_layer_2fee8ec8_1"><g data-ac-wrapper-id="9" role="article" aria-label="radar chart , with 1 line series, . Y-scale minimum value is 0 , maximum value is 1.2. X-scale with 12 categories: 0, 1, 2, 3, 4, 5, 6, 7, 8, 9, 10, 11, . " id="ac_chart_2fee8ec8_2"><g data-ac-wrapper-id="10" id="ac_layer_2fee8ec8_4"><path data-ac-wrapper-id="11" id="ac_path_2fee8ec8_3" fill="#ffffff" stroke="none" d="M 0 0 L 1366 0 1366 0 1366 679 1366 679 0 679 0 679 0 0 0 0 Z"/></g><path data-ac-wrapper-id="14" id="ac_path_2fee8ec8_7" fill="none" stroke="none" d="M 824 89 L 678 342 678 50 Z"/><path data-ac-wrapper-id="15" id="ac_path_2fee8ec8_8" fill="none" stroke="none" d="M 931 196 L 678 342 824 89 Z"/><path data-ac-wrapper-id="16" id="ac_path_2fee8ec8_9" fill="none" stroke="none" d="M 970 342 L 678 342 931 196 Z"/><path data-ac-wrapper-id="17" id="ac_path_2fee8ec8_a" fill="none" stroke="none" d="M 931 488 L 678 342 970 342 Z"/><path data-ac-wrapper-id="18" id="ac_path_2fee8ec8_b" fill="none" stroke="none" d="M 824 595 L 678 342 931 488 Z"/><path data-ac-wrapper-id="19" id="ac_path_2fee8ec8_c" fill="none" stroke="none" d="M 678 634 L 678 342 824 595 Z"/><path data-ac-wrapper-id="20" id="ac_path_2fee8ec8_d" fill="none" stroke="none" d="M 532 595 L 678 342 678 634 Z"/><path data-ac-wrapper-id="21" id="ac_path_2fee8ec8_e" fill="none" stroke="none" d="M 425 488 L 678 342 532 595 Z"/><path data-ac-wrapper-id="22" id="ac_path_2fee8ec8_f" fill="none" stroke="none" d="M 386 342 L 678 342 425 488 Z"/><path data-ac-wrapper-id="23" id="ac_path_2fee8ec8_g" fill="none" stroke="none" d="M 425 196 L 678 342 386 342 Z"/><path data-ac-wrapper-id="24" id="ac_path_2fee8ec8_h" fill="none" stroke="none" d="M 532 89 L 678 342 425 196 Z"/><path data-ac-wrapper-id="25" id="ac_path_2fee8ec8_i" fill="none" stroke="none" d="M 678 50 L 678 342 532 89 Z"/><path data-ac-wrapper-id="28" id="ac_path_2fee8ec8_n" fill="none" stroke="none" d="M 678 245 L 727 258 762 293 775 342 762 391 727 426 678 439 629 426 594 391 581 342 594 293 629 258 678 245 678 342 678 342 678 342 678 342 678 342 678 342 678 342 678 342 678 342 678 342 678 342 678 342 678 342 Z"/><path data-ac-wrapper-id="29" id="ac_path_2fee8ec8_o" fill="none" stroke="none" d="M 678 147 L 775 173 847 245 873 342 847 439 775 511 678 537 581 511 509 439 483 342 509 245 581 173 678 147 678 245 629 258 594 293 581 342 594 391 629 426 678 439 727 426 762 391 775 342 762 293 727 258 678 245 Z"/><path data-ac-wrapper-id="30" id="ac_path_2fee8ec8_p" fill="none" stroke="none" d="M 678 50 L 824 89 931 196 970 342 931 488 824 595 678 634 532 595 425 488 386 342 425 196 532 89 678 50 678 147 581 173 509 245 483 342 509 439 581 511 678 537 775 511 847 439 873 342 847 245 775 173 678 147 Z"/><path data-ac-wrapper-id="26" clip-path="url(&quot;#ac_clip_2fee8ec8_k&quot;)" clipPathUnits="userSpaceOnUse" id="ac_path_2fee8ec8_m" fill="none" stroke="#CECECE" d="M 678.5 50 L 678 342 M 824 89 L 678 342 M 931 196 L 678 342 M 970 341.5 L 678 342 M 931 488 L 678 342 M 824 595 L 678 342 M 677.5 634 L 678 342 M 532 595 L 678 342 M 425 488 L 678 342 M 386 342.5 L 678 342 M 425 196 L 678 342 M 532 89 L 678 342"/><path data-ac-wrapper-id="31" clip-path="url(&quot;#ac_clip_2fee8ec8_r&quot;)" clipPathUnits="userSpaceOnUse" id="ac_path_2fee8ec8_t" fill="none" stroke="#CECECE" d="M 678 245 L 727 258 762 293 775 342 762 391 727 426 678 439 629 426 594 391 581 342 594 293 629 258 678 245 M 678 147 L 775 173 847 245 873 342 847 439 775 511 678 537 581 511 509 439 483 342 509 245 581 173 678 147 M 678 50 L 824 89 931 196 970 342 931 488 824 595 678 634 532 595 425 488 386 342 425 196 532 89 678 50"/><path data-ac-wrapper-id="33" id="ac_path_2fee8ec8_u" fill="none" stroke="#CECECE" d="M 678 50 L 824 89 931 196 970 342 931 488 824 595 678 634 532 595 425 488 386 342 425 196 532 89 Z"/><path data-ac-wrapper-id="34" id="ac_path_2fee8ec8_v" fill="none" stroke="#CECECE" d="M 678.5 50 L 678.5 44 M 824 89 L 827 84 M 931 196 L 936 193 M 970 341.5 L 976 341.5 M 931 488 L 936 491 M 824 595 L 827 600 M 677.5 634 L 677.5 640 M 532 595 L 529 600 M 425 488 L 420 491 M 386 342.5 L 380 342.5 M 425 196 L 420 193 M 532 89 L 529 84"/><g data-ac-wrapper-id="35" id="ac_layer_2fee8ec8_1k"><g data-ac-wrapper-id="36" id="ac_layer_2fee8ec8_x"><text data-ac-wrapper-id="37" font-style="normal" font-variant="normal" font-family="Verdana, Helvetica, Arial, sans-serif" font-size="12" font-weight="normal" fill="#7c868e" letter-spacing="normal" text-decoration="none" direction="ltr" text-anchor="start" x="674.5" y="37" aria-hidden="true" id="ac_text_2fee8ec8_w" style="user-select: none; font-family: Verdana, Helvetica, Arial, sans-serif; opacity: 1;"><tspan x="674.5" dy="0">0</tspan></text></g><g data-ac-wrapper-id="38" id="ac_layer_2fee8ec8_z"><text data-ac-wrapper-id="39" font-style="normal" font-variant="normal" font-family="Verdana, Helvetica, Arial, sans-serif" font-size="12" font-weight="normal" fill="#7c868e" letter-spacing="normal" text-decoration="none" direction="ltr" text-anchor="start" x="831" y="77" aria-hidden="true" id="ac_text_2fee8ec8_y" style="user-select: none; font-family: Verdana, Helvetica, Arial, sans-serif; opacity: 1;"><tspan x="831" dy="0">1</tspan></text></g><g data-ac-wrapper-id="40" id="ac_layer_2fee8ec8_11"><text data-ac-wrapper-id="41" font-style="normal" font-variant="normal" font-family="Verdana, Helvetica, Arial, sans-serif" font-size="12" font-weight="normal" fill="#7c868e" letter-spacing="normal" text-decoration="none" direction="ltr" text-anchor="start" x="940" y="186" aria-hidden="true" id="ac_text_2fee8ec8_10" style="user-select: none; font-family: Verdana, Helvetica, Arial, sans-serif; opacity: 1;"><tspan x="940" dy="0">2</tspan></text></g><g data-ac-wrapper-id="42" id="ac_layer_2fee8ec8_13"><text data-ac-wrapper-id="43" font-style="normal" font-variant="normal" font-family="Verdana, Helvetica, Arial, sans-serif" font-size="12" font-weight="normal" fill="#7c868e" letter-spacing="normal" text-decoration="none" direction="ltr" text-anchor="start" x="980" y="346" aria-hidden="true" id="ac_text_2fee8ec8_12" style="user-select: none; font-family: Verdana, Helvetica, Arial, sans-serif; opacity: 1;"><tspan x="980" dy="0">3</tspan></text></g><g data-ac-wrapper-id="44" id="ac_layer_2fee8ec8_15"><text data-ac-wrapper-id="45" font-style="normal" font-variant="normal" font-family="Verdana, Helvetica, Arial, sans-serif" font-size="12" font-weight="normal" fill="#7c868e" letter-spacing="normal" text-decoration="none" direction="ltr" text-anchor="start" x="940" y="507" aria-hidden="true" id="ac_text_2fee8ec8_14" style="user-select: none; font-family: Verdana, Helvetica, Arial, sans-serif; opacity: 1;"><tspan x="940" dy="0">4</tspan></text></g><g data-ac-wrapper-id="46" id="ac_layer_2fee8ec8_17"><text data-ac-wrapper-id="47" font-style="normal" font-variant="normal" font-family="Verdana, Helvetica, Arial, sans-serif" font-size="12" font-weight="normal" fill="#7c868e" letter-spacing="normal" text-decoration="none" direction="ltr" text-anchor="start" x="831" y="616" aria-hidden="true" id="ac_text_2fee8ec8_16" style="user-select: none; font-family: Verdana, Helvetica, Arial, sans-serif; opacity: 1;"><tspan x="831" dy="0">5</tspan></text></g><g data-ac-wrapper-id="48" id="ac_layer_2fee8ec8_19"><text data-ac-wrapper-id="49" font-style="normal" font-variant="normal" font-family="Verdana, Helvetica, Arial, sans-serif" font-size="12" font-weight="normal" fill="#7c868e" letter-spacing="normal" text-decoration="none" direction="ltr" text-anchor="start" x="673.5" y="656" aria-hidden="true" id="ac_text_2fee8ec8_18" style="user-select: none; font-family: Verdana, Helvetica, Arial, sans-serif; opacity: 1;"><tspan x="673.5" dy="0">6</tspan></text></g><g data-ac-wrapper-id="50" id="ac_layer_2fee8ec8_1b"><text data-ac-wrapper-id="51" font-style="normal" font-variant="normal" font-family="Verdana, Helvetica, Arial, sans-serif" font-size="12" font-weight="normal" fill="#7c868e" letter-spacing="normal" text-decoration="none" direction="ltr" text-anchor="start" x="517" y="616" aria-hidden="true" id="ac_text_2fee8ec8_1a" style="user-select: none; font-family: Verdana, Helvetica, Arial, sans-serif; opacity: 1;"><tspan x="517" dy="0">7</tspan></text></g><g data-ac-wrapper-id="52" id="ac_layer_2fee8ec8_1d"><text data-ac-wrapper-id="53" font-style="normal" font-variant="normal" font-family="Verdana, Helvetica, Arial, sans-serif" font-size="12" font-weight="normal" fill="#7c868e" letter-spacing="normal" text-decoration="none" direction="ltr" text-anchor="start" x="408" y="507" aria-hidden="true" id="ac_text_2fee8ec8_1c" style="user-select: none; font-family: Verdana, Helvetica, Arial, sans-serif; opacity: 1;"><tspan x="408" dy="0">8</tspan></text></g><g data-ac-wrapper-id="54" id="ac_layer_2fee8ec8_1f"><text data-ac-wrapper-id="55" font-style="normal" font-variant="normal" font-family="Verdana, Helvetica, Arial, sans-serif" font-size="12" font-weight="normal" fill="#7c868e" letter-spacing="normal" text-decoration="none" direction="ltr" text-anchor="start" x="368" y="347" aria-hidden="true" id="ac_text_2fee8ec8_1e" style="user-select: none; font-family: Verdana, Helvetica, Arial, sans-serif; opacity: 1;"><tspan x="368" dy="0">9</tspan></text></g><g data-ac-wrapper-id="56" id="ac_layer_2fee8ec8_1h"><text data-ac-wrapper-id="57" font-style="normal" font-variant="normal" font-family="Verdana, Helvetica, Arial, sans-serif" font-size="12" font-weight="normal" fill="#7c868e" letter-spacing="normal" text-decoration="none" direction="ltr" text-anchor="start" x="400.37109375" y="186" aria-hidden="true" id="ac_text_2fee8ec8_1g" style="user-select: none; font-family: Verdana, Helvetica, Arial, sans-serif; opacity: 1;"><tspan x="400.37109375" dy="0">10</tspan></text></g><g data-ac-wrapper-id="58" id="ac_layer_2fee8ec8_1j"><text data-ac-wrapper-id="59" font-style="normal" font-variant="normal" font-family="Verdana, Helvetica, Arial, sans-serif" font-size="12" font-weight="normal" fill="#7c868e" letter-spacing="normal" text-decoration="none" direction="ltr" text-anchor="start" x="509.734375" y="77" aria-hidden="true" id="ac_text_2fee8ec8_1i" style="user-select: none; font-family: Verdana, Helvetica, Arial, sans-serif; opacity: 1;"><tspan x="509.734375" dy="0">11</tspan></text></g></g><g data-ac-wrapper-id="72" id="ac_layer_2fee8ec8_1x"/><g data-ac-wrapper-id="73" id="ac_layer_2fee8ec8_1y"/><g data-ac-wrapper-id="74" id="ac_layer_2fee8ec8_1z"/><path data-ac-wrapper-id="60" id="ac_path_2fee8ec8_1l" fill="none" stroke="#CECECE" d="M 678.5 342 L 678.5 50"/><path data-ac-wrapper-id="61" id="ac_path_2fee8ec8_1m" fill="none" stroke="#CECECE" d="M 678 341.5 L 672 341.5 M 678 245.5 L 672 245.5 M 678 148.5 L 672 148.5 M 678 50.5 L 672 50.5"/><g data-ac-wrapper-id="62" id="ac_layer_2fee8ec8_1n"/><g data-ac-wrapper-id="63" id="ac_layer_2fee8ec8_1w"><g data-ac-wrapper-id="64" id="ac_layer_2fee8ec8_1p"><text data-ac-wrapper-id="65" font-style="normal" font-variant="normal" font-family="Verdana, Helvetica, Arial, sans-serif" font-size="12" font-weight="normal" fill="#7c868e" letter-spacing="normal" text-decoration="none" direction="ltr" text-anchor="start" x="660" y="346.5" aria-hidden="true" id="ac_text_2fee8ec8_1o" style="user-select: none; font-family: Verdana, Helvetica, Arial, sans-serif; opacity: 1;"><tspan x="660" dy="0">0</tspan></text></g><g data-ac-wrapper-id="66" id="ac_layer_2fee8ec8_1r"><text data-ac-wrapper-id="67" font-style="normal" font-variant="normal" font-family="Verdana, Helvetica, Arial, sans-serif" font-size="12" font-weight="normal" fill="#7c868e" letter-spacing="normal" text-decoration="none" direction="ltr" text-anchor="start" x="648.005859375" y="249.16666666666663" aria-hidden="true" id="ac_text_2fee8ec8_1q" style="user-select: none; font-family: Verdana, Helvetica, Arial, sans-serif; opacity: 1;"><tspan x="648.005859375" dy="0">0.4</tspan></text></g><g data-ac-wrapper-id="68" id="ac_layer_2fee8ec8_1t"><text data-ac-wrapper-id="69" font-style="normal" font-variant="normal" font-family="Verdana, Helvetica, Arial, sans-serif" font-size="12" font-weight="normal" fill="#7c868e" letter-spacing="normal" text-decoration="none" direction="ltr" text-anchor="start" x="648.005859375" y="151.83333333333331" aria-hidden="true" id="ac_text_2fee8ec8_1s" style="user-select: none; font-family: Verdana, Helvetica, Arial, sans-serif; opacity: 1;"><tspan x="648.005859375" dy="0">0.8</tspan></text></g><g data-ac-wrapper-id="70" id="ac_layer_2fee8ec8_1v"><text data-ac-wrapper-id="71" font-style="normal" font-variant="normal" font-family="Verdana, Helvetica, Arial, sans-serif" font-size="12" font-weight="normal" fill="#7c868e" letter-spacing="normal" text-decoration="none" direction="ltr" text-anchor="start" x="648.005859375" y="54.5" aria-hidden="true" id="ac_text_2fee8ec8_1u" style="user-select: none; font-family: Verdana, Helvetica, Arial, sans-serif; opacity: 1;"><tspan x="648.005859375" dy="0">1.2</tspan></text></g></g><g data-ac-wrapper-id="12" transform="matrix(1,0,0,1,678,10)" id="ac_layer_2fee8ec8_6"><text data-ac-wrapper-id="13" font-style="normal" font-variant="normal" font-family="Verdana, Helvetica, Arial, sans-serif" font-size="16" font-weight="normal" fill="#7c868e" letter-spacing="normal" text-decoration="none" direction="ltr" text-anchor="middle" x="0" y="16" aria-hidden="true" id="ac_text_2fee8ec8_5" style="user-select: none; font-family: Verdana, Helvetica, Arial, sans-serif; opacity: 1;"/></g></g></g></svg>